<svg xmlns="http://www.w3.org/2000/svg" viewBox="0 0 1200 630" width="1200" height="630">
  <rect width="1200" height="630" fill="#0d3b4f"/>
  <!-- Blueprint grid -->
  <g stroke="#1a5a7a" stroke-width="1" opacity="0.6">
    <g id="h-lines">
      <line x1="0" y1="30"  x2="1200" y2="30"/>
      <line x1="0" y1="60"  x2="1200" y2="60"/>
      <line x1="0" y1="90"  x2="1200" y2="90"/>
      <line x1="0" y1="120" x2="1200" y2="120"/>
      <line x1="0" y1="150" x2="1200" y2="150"/>
      <line x1="0" y1="180" x2="1200" y2="180"/>
      <line x1="0" y1="210" x2="1200" y2="210"/>
      <line x1="0" y1="240" x2="1200" y2="240"/>
      <line x1="0" y1="270" x2="1200" y2="270"/>
      <line x1="0" y1="300" x2="1200" y2="300"/>
      <line x1="0" y1="330" x2="1200" y2="330"/>
      <line x1="0" y1="360" x2="1200" y2="360"/>
      <line x1="0" y1="390" x2="1200" y2="390"/>
      <line x1="0" y1="420" x2="1200" y2="420"/>
      <line x1="0" y1="450" x2="1200" y2="450"/>
      <line x1="0" y1="480" x2="1200" y2="480"/>
      <line x1="0" y1="510" x2="1200" y2="510"/>
      <line x1="0" y1="540" x2="1200" y2="540"/>
      <line x1="0" y1="570" x2="1200" y2="570"/>
      <line x1="0" y1="600" x2="1200" y2="600"/>
    </g>
    <g id="v-lines">
      <line x1="30"   y1="0" x2="30"   y2="630"/>
      <line x1="60"   y1="0" x2="60"   y2="630"/>
      <line x1="90"   y1="0" x2="90"   y2="630"/>
      <line x1="120"  y1="0" x2="120"  y2="630"/>
      <line x1="150"  y1="0" x2="150"  y2="630"/>
      <line x1="180"  y1="0" x2="180"  y2="630"/>
      <line x1="210"  y1="0" x2="210"  y2="630"/>
      <line x1="240"  y1="0" x2="240"  y2="630"/>
      <line x1="270"  y1="0" x2="270"  y2="630"/>
      <line x1="300"  y1="0" x2="300"  y2="630"/>
      <line x1="330"  y1="0" x2="330"  y2="630"/>
      <line x1="360"  y1="0" x2="360"  y2="630"/>
      <line x1="390"  y1="0" x2="390"  y2="630"/>
      <line x1="420"  y1="0" x2="420"  y2="630"/>
      <line x1="450"  y1="0" x2="450"  y2="630"/>
      <line x1="480"  y1="0" x2="480"  y2="630"/>
      <line x1="510"  y1="0" x2="510"  y2="630"/>
      <line x1="540"  y1="0" x2="540"  y2="630"/>
      <line x1="570"  y1="0" x2="570"  y2="630"/>
      <line x1="600"  y1="0" x2="600"  y2="630"/>
      <line x1="630"  y1="0" x2="630"  y2="630"/>
      <line x1="660"  y1="0" x2="660"  y2="630"/>
      <line x1="690"  y1="0" x2="690"  y2="630"/>
      <line x1="720"  y1="0" x2="720"  y2="630"/>
      <line x1="750"  y1="0" x2="750"  y2="630"/>
      <line x1="780"  y1="0" x2="780"  y2="630"/>
      <line x1="810"  y1="0" x2="810"  y2="630"/>
      <line x1="840"  y1="0" x2="840"  y2="630"/>
      <line x1="870"  y1="0" x2="870"  y2="630"/>
      <line x1="900"  y1="0" x2="900"  y2="630"/>
      <line x1="930"  y1="0" x2="930"  y2="630"/>
      <line x1="960"  y1="0" x2="960"  y2="630"/>
      <line x1="990"  y1="0" x2="990"  y2="630"/>
      <line x1="1020" y1="0" x2="1020" y2="630"/>
      <line x1="1050" y1="0" x2="1050" y2="630"/>
      <line x1="1080" y1="0" x2="1080" y2="630"/>
      <line x1="1110" y1="0" x2="1110" y2="630"/>
      <line x1="1140" y1="0" x2="1140" y2="630"/>
      <line x1="1170" y1="0" x2="1170" y2="630"/>
    </g>
  </g>
  <!-- Corner ticks -->
  <g stroke="#ffd670" stroke-width="3" fill="none">
    <path d="M 40 40 L 80 40 M 40 40 L 40 80"/>
    <path d="M 1160 40 L 1120 40 M 1160 40 L 1160 80"/>
    <path d="M 40 590 L 80 590 M 40 590 L 40 550"/>
    <path d="M 1160 590 L 1120 590 M 1160 590 L 1160 550"/>
  </g>
  <!-- Central schematic icon -->
  <g transform="translate(300 315)" fill="none" stroke="#ffd670" stroke-width="6" stroke-linejoin="round" stroke-linecap="round">
    <polygon points="0,-150 130,0 0,150 -130,0"/>
    <circle cx="0" cy="0" r="65"/>
    <line x1="-65"  y1="0"    x2="-130" y2="0"/>
    <line x1="65"   y1="0"    x2="130"  y2="0"/>
    <line x1="0"    y1="-65"  x2="0"    y2="-130"/>
    <line x1="0"    y1="65"   x2="0"    y2="130"/>
  </g>
  <!-- Title + subtitle text -->
  <g font-family="Consolas, monospace" fill="#fffbea">
    <text x="540" y="270" font-size="88" font-weight="700" letter-spacing="8">BLUEPRINT</text>
    <text x="540" y="320" font-size="24" fill="#b0d0e4" letter-spacing="5">AN  INCREMENTAL  FACTORY</text>
    <text x="540" y="400" font-size="22" fill="#ffd670" letter-spacing="3">MINE · SMELT · CRAFT · PRESTIGE · PUBLISH</text>
  </g>
  <!-- Bottom signature strip -->
  <g font-family="Consolas, monospace" fill="#7aa5bf" font-size="18" letter-spacing="4">
    <text x="540" y="560">9 CHALLENGE MODES · 10 BLUEPRINTS · 47 ACHIEVEMENTS</text>
  </g>
</svg>
